Patient4_TMGait_0pt4_01_right_09_EMG.mot
version=1
nRows=29
nColumns=33
inDegrees=no
endheader
time	1LAddLong	2LGlutMax	3LGlutMed	4LIliopsoas	5LSemiMemb	6LBicFemLong	7LRecFem	8LVastMed	9LVastLat	10LGasMed	11LTibAnt	12lTibPost	13LPeroneusLong	14LSol	15LExtDigLong	16LFlexDigLong	17RAddLong	18RGlutMax	19RGlutMed	20RIliopsoas	21RSemiMemb	22RBicFemLong	23RRecFem	24RVastMed	25RVastLat	26RGasMed	27RTibAnt	28RTibPost	29RPeroneusLong	30RSol	31RExtDigLong	32RFlexDigLong
12.755	0.012817	-0.08255	0.034943	0.016785	0.010529	-0.029297	0.053558	-0.019073	-0.036774	0.12497	0.0177	-0.001678	-0.12436	-0.014801	0.027466	-0.043335	0.045929	-0.089874	0.028839	0.026245	0.28748	-0.30533	0.020142	-0.060883	-0.00885	0.066833	-0.015869	-0.002899	0.080566	-0.010223	-0.003662	0.009766
12.756	0.008698	-0.071869	0.009308	0.016479	0.041656	-0.020447	0.019531	-0.000305	0.007629	0.087891	-0.021362	0.001068	-0.079041	0.029144	-0.001526	0.014954	0.038605	-0.057526	0.045776	-0.020294	0.11978	-0.31891	-0.031891	-0.052948	-0.001984	0.081177	-0.092316	-0.002594	-0.054474	-0.000458	-0.000153	0.008392
12.757	0.002899	-0.11643	0.031586	-0.014038	0.017548	-0.012817	0.037384	0.004883	-0.009003	0.27695	0.014648	0.008545	0.045166	0.057678	0.091705	0.017548	0.010071	-0.061188	0.02121	-0.076447	-0.038757	-0.35507	-0.041199	-0.027008	-0.001221	0.094757	-0.042114	-0.006104	-0.2243	0.069733	-0.001068	0.000305
12.758	0.014801	-0.082397	0.069733	-0.003815	0.035858	-0.025787	0.077667	0.007629	-0.029755	0.12024	0.030518	0.011597	0.11002	-0.03479	0.19821	0.045319	-0.064392	-0.070953	0.006409	-0.1503	-0.10544	-0.39475	-0.07309	-0.064697	0.001068	0.10757	0.001678	-0.001831	-0.17761	0.062866	-0.004425	0.009918
12.759	0.006561	-0.1265	0.058441	0.022888	0.029144	-0.026245	0.11124	0.009766	-0.040436	-0.26077	0.03006	0.001831	0.21255	-0.11398	0.028992	0.034332	-0.11459	-0.10208	0.016785	-0.13825	0.003204	-0.28763	-0.11948	-0.039978	-0.015869	0.1265	-0.006714	-0.002594	0.54092	-0.009155	-0.001831	0.016022
12.76	0.006256	-0.13138	0.03418	0.027618	0.014496	-0.032196	0.10452	0.009766	-0.033264	-0.41946	-0.057983	0.00473	0.24246	-0.18753	-0.097656	0.08316	-0.1181	-0.085449	0.11078	-0.054626	0.005341	-0.20477	-0.1442	-0.022278	0.001831	0.13443	-0.077667	-0.000763	0.50491	-0.026855	-0.001221	0.01709
12.761	0.015717	-0.1152	0.070953	0.023499	0.011139	-0.005646	0.094147	0.01236	-0.029755	-0.43823	-0.027771	0.018158	0.18097	-0.23773	-0.08728	-0.092316	-0.11688	-0.019379	0.15503	0.062714	0.22644	-0.10315	-0.081024	-0.036469	0.009766	0.10407	0.12711	0.001984	0.27466	0.011444	-0.00351	0.016632
12.762	0.010071	-0.081482	0.059967	0.016785	0.00946	-0.007019	0.028839	0.014191	-0.006256	-0.3537	0.003662	0.013733	0.103	-0.087585	-0.055695	-0.30746	-0.092621	-0.00351	0.098877	0.14725	0.10742	-0.070343	-0.089264	-0.02243	0.00412	0.076904	0.29495	-0.005341	0.41565	0.029449	-0.001831	0.018921
12.763	0.012817	-0.11643	0.07782	-0.010681	0.017242	-0.002899	0.02655	-0.007172	0.014648	-0.1889	0.034027	0.010223	0.077362	-0.39734	-0.068054	0.12711	-0.048218	-0.06134	0.059204	0.047913	0.044556	-0.068054	-0.073395	-0.024109	0.002899	0.049438	-0.25482	-0.005341	0.33569	0.030518	-0.004425	0.011292
12.764	0.011292	-0.099487	0.079956	0.003662	0.010223	0.005493	-0.042419	-0.001068	0.019836	-0.037689	-0.020142	-0.003357	0.059814	-0.47333	-0.082855	-0.12695	-0.02655	-0.02533	0.1799	-0.033875	0.047913	-0.087891	-0.054169	-0.072021	-0.006409	0.03067	-0.35584	-0.004272	0.29831	-0.018921	-0.005341	0.015106
12.765	0.011749	-0.096893	0.045471	0.011749	0.008087	0.02243	-0.072479	0.003204	0.037079	0.15472	-0.020905	-0.008087	0.040588	-0.37537	-0.060425	0.24841	0.012207	-0.043182	0.096893	0.002289	0.060425	-0.097504	-0.024567	-0.062714	0.002594	0.017395	-0.14358	-0.00824	0.13611	-0.051727	0.000305	0.022278
12.766	0.000458	-0.1152	-0.034485	0.014038	0.000763	0.015869	-0.015869	-0.001526	-0.004425	0.18509	-0.025024	0.006866	0.027466	-0.06958	0	0.20538	0.040283	-0.009613	-0.10773	0.04715	0.044098	-0.075836	0.046539	-0.017242	-0.012665	0.005035	0.085754	-0.007782	-0.42984	-0.096436	-0.003967	0.02533
12.767	-0.002899	-0.084229	0.045929	-0.006714	-0.012207	0.033875	0.023346	0.000153	-0.084839	0.032654	-0.02594	0.001068	0.031738	-0.041504	0.049286	-0.14206	0.06424	-0.026093	-0.13657	0.024719	-0.10849	0.00061	0.06546	-0.066528	-0.023041	-0.001678	0.17792	-0.005035	-0.89447	-0.12909	-0.004883	0.012512
12.768	-0.000153	-0.035858	0.015869	0.004578	0.007477	0.021515	0.045624	-0.007019	0.006714	-0.060425	0.00473	0.019836	-0.039978	0.023804	0.036316	-0.10986	0.049896	0.033875	-0.016174	-0.046692	-0.26642	0.094452	0.025177	-0.062714	0.003052	-0.014038	0.16754	-0.004883	-0.51071	-0.14084	-0.001984	-0.000916
12.769	0.003357	-0.075836	0.062561	0.007782	0.01297	0.032043	0.069885	-0.005035	0.026245	-0.066376	0.037994	0.027771	-0.032196	0.13245	0.020294	-0.033417	0.028534	-0.031281	0.19119	-0.085297	-0.24262	0.12573	0.017853	-0.044708	0.007324	-0.019836	0.028687	-0.003052	-0.3508	-0.001831	-0.004272	-0.013885
12.77	0.009766	-0.13184	0.031128	0.007019	-0.01358	0.013733	0.015411	-0.006409	0.021667	-0.082092	-0.009918	0.018616	-0.062256	0.13748	0.29343	-0.004425	0.001984	-0.076447	0.058136	-0.066833	-0.20065	0.17364	-0.026398	0.003204	0.009308	-0.027008	-0.044708	-0.006104	0.69595	0.091553	-0.005035	-0.014954
12.771	-0.002747	-0.13489	-0.089874	0.00473	-0.018921	-0.010681	0.036316	-0.011444	-0.084686	-0.068817	-0.058746	0.010529	-0.049591	0.22659	0.071564	0.003052	-0.050507	-0.056458	-0.18097	-0.072021	0.16022	0.21759	-0.033569	0.024719	0.011597	-0.028839	0.051727	-0.007019	0.27329	0.056	-0.004578	-0.000153
12.772	0.011139	-0.12054	-0.10727	0.00351	0.00824	-0.020294	0.078278	-0.003204	-0.042114	-0.06424	-0.001373	0.003815	-0.061493	0.32425	0.28122	-0.009613	-0.036469	-0.049133	-0.055542	-0.092773	0.082092	0.18066	-0.012054	-0.012512	-0.003204	-0.027008	0.042725	-0.001831	-0.30914	0.009613	-0.004578	0.006256
12.773	0.008698	-0.11627	-0.036316	-0.007782	0.022888	-0.068359	0.050812	-0.008392	-0.030212	-0.081024	-0.018768	0.001526	-0.091858	0.30807	-0.10529	0.000916	-0.036163	-0.05249	0.077515	-0.057373	-0.085449	0.1712	-0.014191	-0.057068	0.010223	-0.023651	0.051727	-0.004578	-0.45303	-0.026093	-0.00351	0.01358
12.774	0.004425	-0.10284	0.00946	-0.001678	0.001068	-0.077515	0.014801	-0.005493	-0.022888	-0.13077	0.019379	-0.000305	0.067596	0.2803	-0.30334	-0.010071	-0.00824	-0.067596	0.047607	0.1384	-0.082703	0.15686	-0.000916	-0.054169	-0.012207	-0.026398	0.11337	-0.003967	-0.33737	0.010223	-0.000153	0.014191
12.775	0.009155	-0.11932	0.006409	0.019531	-0.023041	-0.055695	-0.003815	-0.000458	0.003204	-0.082245	0.061035	0.003204	-0.008087	0.18158	-0.067902	0.019379	0.011597	0.00885	0.054321	0.2063	0.14404	0.14511	0.003357	-0.056	0.000305	-0.022583	-0.037994	-0.007629	0.068054	-0.00412	0.000458	0.018616
12.776	0.007782	-0.12405	-0.019989	0.03006	-0.013885	-0.021057	-0.008545	0.004883	0.011139	0.005646	0.016174	0.001984	0.049591	0.09903	-0.13001	0.007019	-0.011139	-0.005188	0.0914	0.12924	0.23819	0.14114	-0.00946	-0.012207	0.004272	-0.021667	-0.063477	-0.005951	-0.082397	-0.040894	-0.003967	0.020294
12.777	0.000305	-0.095978	-0.017548	0.042877	0.036774	-0.014954	0.032043	0.003967	-0.017242	0.20462	0.001373	0.005035	0.009155	0.060883	-0.13336	0.006256	-0.060883	-0.022278	0.047302	0.015717	0.005188	0.17349	-0.079803	0.014801	0.013733	-0.021973	0.007324	-0.001984	-0.26916	-0.07309	-0.004883	0.02533
12.778	0.002289	-0.079956	-0.018921	0.017548	0.052948	0.002747	0.014954	-0.000305	-0.019226	0.24643	0.004425	0.006866	-0.076294	0.075836	-0.009155	0.014648	-0.079498	-0.027924	0.022278	-0.001831	-0.12207	0.19806	-0.1001	0.023193	0.010986	-0.023041	0.050659	-0.002899	-0.13214	0.035553	-0.002441	0.023346
12.779	-0.003967	-0.103	0.055084	0.011597	-0.001831	0.029144	0.014038	0.007172	-0.039825	0.25726	0.005188	0.002289	0.009613	0.11063	0.074615	0.00351	-0.031281	-0.02533	-0.043793	-0.005798	0.006104	0.17059	-0.070496	0.009003	0.002594	-0.028229	0.13794	-0.00473	0.018311	0.020294	-0.003052	0.025024
12.78	0.006561	-0.07309	0.046539	0.016327	-0.050507	-0.012665	0.003357	0.009918	-0.016937	0.24826	0.001373	0.007477	0.031433	0.12772	0.055847	-0.006409	-0.019073	0.018921	-0.070801	-0.026245	0.06134	0.18951	-0.012665	0.034027	0.006866	-0.029297	0.26642	-0.010071	0.079346	-0.003967	-0.003357	0.030518
12.781	0.007782	-0.084534	0.092926	0.016937	-0.03067	-0.066681	0.018005	0.000458	0.007782	0.27054	0.016327	0.00885	0.032043	0.047302	0.037079	-0.019379	0.00824	-0.030212	-0.019226	-0.005798	-0.014191	0.24155	0.00473	-0.024109	-0.012207	-0.026093	-0.003052	-0.007019	0.054474	-0.006256	-0.00946	0.032501
12.782	0.007172	-0.088501	0.000916	0.029907	0.098572	-0.04776	0.061493	-0.001831	-0.045166	0.072174	0.011292	-0.003357	0.032043	-0.017548	0.014954	0.024414	0.012207	-0.037537	0.029297	0.048523	0.006104	0.25253	-0.007324	-0.10208	-0.007019	-0.018616	-0.061493	-0.00473	-0.11261	-0.050507	-0.003967	0.028076
12.783	0.005493	-0.077209	-0.11856	0.016785	0.072327	-0.035858	0.031433	-0.002441	-0.031433	0.23209	-0.003052	-0.002747	-0.052338	-0.013123	0.003052	-0.030212	0.005035	-0.036316	-0.098724	0.062866	-0.005493	0.18585	-0.033417	-0.062714	-0.009766	-0.015411	-0.018463	-0.01236	-0.24719	0.008392	-0.004578	0.030518
